# xmcd CD database file
#
# Track frame offsets:
#	150
#	13976
#	32039
#	47515
#	59135
#	71919
#	83477
#	95290
#	114811
#	136930
#	148713
#	164315
#	180064
#	192796
#	218784
#
# Disc length: 3515 seconds
#
# Revision: 0
# Processed by: cddbd v1.5.1PL2 Copyright (c) Steve Scherf et al.
# Submitted via: CDex 1.50
#
DISCID=c70db90f
DTITLE=Nova Era - Sanctuary
DYEAR=2003
DGENRE=New Age
TTITLE0=Balletto
TTITLE1=Sanctuary
TTITLE2=Tramonti
TTITLE3=Concerto Grosso Op. 5 (A. Coreli)
TTITLE4=In My Dream
TTITLE5=Sonatina
TTITLE6=Symphony No. 40 (W.A. Mozart)
TTITLE7=Adagio Per Oboe (B. Marcello)
TTITLE8=The Winner Takes It All
TTITLE9=Luce... "Light"
TTITLE10=Love Notes
TTITLE11=Escapade
TTITLE12=Baroque Hoedown
TTITLE13=Sanctuary "Remix"
TTITLE14=Data Track
EXTD=YEAR: 2003
EXTT0=
EXTT1=
EXTT2=
EXTT3=
EXTT4=
EXTT5=
EXTT6=
EXTT7=
EXTT8=
EXTT9=
EXTT10=
EXTT11=
EXTT12=
EXTT13=
EXTT14=
PLAYORDER=
